# xmcd CD database file
#
# Track frame offsets:
#	150
#	25375
#	53030
#
# Disc length: 1039 seconds
#
# Revision: 0
# Processed by: cddbd v1.5PL3 Copyright (c) Steve Scherf et al.
# Submitted via: CDex 1.50
#
DISCID=1e040d03
DTITLE=CHAKA - 明日へのメロディー
DYEAR=2000
DGENRE=JPop
TTITLE0=明日へのメロディー
TTITLE1=blue as the sky
TTITLE2=明日へのメロディー(オリジナル・カラオケ)
EXTD=YEAR: 2000
EXTT0=
EXTT1=
EXTT2=
PLAYORDER=
